#!OML:ASF H:\LiuWeirdWalks\Patient Classification 1\Patient 1\Session 1\male.ASF
:FULLY-SPECIFIED
:DEGREES
585
root 4.28766 17.9133 3.03582 -4.32401 0.787638 -3.08988
lowerback 11.0048 4.98802 -1.09078
upperback 1.61487 6.82444 5.84256
thorax -5.3132 3.46574 5.68418
lowerneck -13.2945 -2.52404 5.38633
upperneck 25.379 -3.08911 -6.64998
head 10.0399 -1.66105 -3.64606
rclavicle 1.61513e-014 -4.77083e-015
rhumerus -22.268 -1.24044 -53.9469
rradius 58.3658
rwrist -0.432629
rhand -11.0164 1.59459
rfingers 7.12502
rthumb 15.0047 -27.8418
lclavicle 1.61513e-014 -4.77083e-015
lhumerus -49.994 31.7581 13.9674
lradius 46.5488
lwrist 5.3078
lhand -19.9414 14.543
lfingers 7.12502
lthumb 6.39643 44.4264
rfemur -28.498 -15.6017 -2.78701
rtibia 56.4139
rfoot 25.5645 -2.505
rtoes 3.42006
lfemur -4.74464 -4.77842 -23.6468
ltibia 30.0104
lfoot -12.3766 27.1753
ltoes -2.01113
586
root 4.27009 17.9087 3.04837 -4.14504 0.700001 -3.08214
lowerback 10.8141 5.05483 -1.12535
upperback 1.51971 6.9037 5.71966
thorax -5.30493 3.50556 5.56948
lowerneck -13.3293 -2.52525 5.38263
upperneck 25.4129 -3.12586 -6.51511
head 10.0598 -1.66246 -3.60397
rclavicle -3.02153e-014 3.02153e-014
rhumerus -22.4464 -0.772667 -54.4523
rradius 58.7387
rwrist -0.402842
rhand -10.4143 1.67554
rfingers 7.12502
rthumb 15.5846 -27.7166
lclavicle -3.02153e-014 3.02153e-014
lhumerus -50.6846 32.2289 12.9639
lradius 46.5484
lwrist 5.8182
lhand -21.0043 15.019
lfingers 7.12502
lthumb 5.3702 44.931
rfemur -27.2068 -14.7592 -2.55244
rtibia 55.4587
rfoot 25.4572 -0.874645
rtoes 2.4587
lfemur -5.00665 -4.79062 -23.5737
ltibia 30.2509
lfoot -12.5312 27.2386
ltoes -2.03477
587
root 4.25193 17.9028 3.06007 -3.97054 0.639444 -3.06503
lowerback 10.6325 5.10824 -1.15844
upperback 1.43058 6.96484 5.58973
thorax -5.29175 3.53605 5.44974
lowerneck -13.3852 -2.51395 5.38638
upperneck 25.4586 -3.1454 -6.38886
head 10.089 -1.65618 -3.56526
rclavicle -4.60187e-014 -2.54444e-014
rhumerus -22.6381 -0.29887 -54.9467
rradius 59.1152
rwrist -0.436934
rhand -9.78781 1.70209
rfingers 7.12502
rthumb 16.188 -27.642
lclavicle -4.60187e-014 -2.54444e-014
lhumerus -51.3216 32.6445 12.0851
lradius 46.5662
lwrist 6.28031
lhand -21.9952 15.5044
lfingers 7.12502
lthumb 4.41339 45.4384
rfemur -25.9429 -13.9159 -2.2966
rtibia 54.4468
rfoot 25.2998 0.667902
rtoes 1.65077
lfemur -5.28155 -4.80145 -23.5091
ltibia 30.5151
lfoot -12.6958 27.2848
ltoes -2.063
588
root 4.23319 17.8956 3.07139 -3.80655 0.608746 -3.04097
lowerback 10.4619 5.14735 -1.18805
upperback 1.34669 7.00712 5.45584
thorax -5.27587 3.5569 5.32694
lowerneck -13.4456 -2.49444 5.40085
upperneck 25.4813 -3.15181 -6.28205
head 10.111 -1.64543 -3.53301
rclavicle 9.6659e-014 2.70347e-014
rhumerus -22.8381 0.176373 -55.4193
rradius 59.4783
rwrist -0.488238
rhand -9.139 1.70078
rfingers 7.12502
rthumb 16.8126 -27.5913
lclavicle 9.6659e-014 2.70347e-014
lhumerus -51.9007 32.9843 11.3448
lradius 46.605
lwrist 6.77534
lhand -22.9324 15.9595
lfingers 7.12502
lthumb 3.50837 45.9103
rfemur -24.6953 -13.0732 -2.02025
rtibia 53.3787
rfoot 24.9807 1.97391
rtoes 0.478903
lfemur -5.55932 -4.80877 -23.4505
ltibia 30.8012
lfoot -12.8779 27.3123
ltoes -2.10273
589
root 4.21407 17.8876 3.08253 -3.64477 0.61105 -3.02268
lowerback 10.284 5.17155 -1.19918
upperback 1.27371 7.03111 5.32254
thorax -5.24003 3.56795 5.19903
lowerneck -13.5223 -2.47265 5.39911
upperneck 25.5184 -3.1527 -6.17095
head 10.1423 -1.63304 -3.4968
rclavicle -1.10325e-014 2.22639e-014
rhumerus -23.0277 0.637702 -55.857
rradius 59.8217
rwrist -0.507734
rhand -8.45406 1.66706
rfingers 7.12502
rthumb 17.4719 -27.5678
lclavicle -1.10325e-014 2.22639e-014
lhumerus -52.3958 33.2585 10.7659
lradius 46.6564
lwrist 7.3396
lhand -23.8052 16.3744
lfingers 7.12502
lthumb 2.66546 46.3374
rfemur -23.4653 -12.2351 -1.71111
rtibia 52.2594
rfoot 24.4112 2.90279
rtoes -1.30383
lfemur -5.84657 -4.80913 -23.3832
ltibia 31.1053
lfoot -13.0764 27.3155
ltoes -2.14351
590
root 4.19437 17.8787 3.09373 -3.48347 0.661139 -2.99597
lowerback 10.1002 5.18055 -1.20749
upperback 1.20533 7.03467 5.18392
thorax -5.19264 3.56858 5.06845
lowerneck -13.576 -2.46094 5.36783
upperneck 25.5292 -3.16363 -6.04567
head 10.1599 -1.62658 -3.45004
rclavicle -3.34455e-014 -6.36111e-015
rhumerus -23.2218 1.08181 -56.2562
rradius 60.1402
rwrist -0.494487
rhand -7.76173 1.62812
rfingers 7.12502
rthumb 18.1381 -27.5462
lclavicle -3.34455e-014 -6.36111e-015
lhumerus -52.7981 33.4825 10.3383
lradius 46.7084
lwrist 7.96599
lhand -24.5975 16.7117
lfingers 7.12502
lthumb 1.9003 46.6829
rfemur -22.2427 -11.4236 -1.38835
rtibia 51.1027
rfoot 23.4702 3.31584
rtoes -3.74949
lfemur -6.14176 -4.80999 -23.3223
ltibia 31.4209
lfoot -13.2869 27.2889
ltoes -2.18861
591
root 4.1739 17.8692 3.10547 -3.32603 0.753848 -2.9567
lowerback 9.90184 5.17606 -1.22379
upperback 1.14832 7.01877 5.04327
thorax -5.12372 3.55947 4.94543
lowerneck -13.6347 -2.4599 5.29232
upperneck 25.5796 -3.18438 -5.89626
head 10.1935 -1.62537 -3.38988
rclavicle -5.0044e-014 -2.94201e-014
rhumerus -23.4215 1.51768 -56.6119
rradius 60.4418
rwrist -0.444252
rhand -7.10339 1.60346
rfingers 7.12502
rthumb 18.7714 -27.5108
lclavicle -5.0044e-014 -2.94201e-014
lhumerus -53.1045 33.6609 10.0638
lradius 46.754
lwrist 8.66402
lhand -25.2985 16.9405
lfingers 7.12502
lthumb 1.22331 46.9168
rfemur -21.0154 -10.635 -1.05916
rtibia 49.9185
rfoot 22.0531 3.16599
rtoes -6.6745
lfemur -6.43421 -4.80532 -23.2717
ltibia 31.7375
lfoot -13.5091 27.2312
ltoes -2.23118
592
root 4.15263 17.8589 3.11747 -3.16847 0.917777 -2.89748
lowerback 9.69118 5.15085 -1.25482
upperback 1.0993 6.97332 4.89936
thorax -5.03789 3.53585 4.83359
lowerneck -13.7156 -2.46777 5.19383
upperneck 25.6495 -3.21222 -5.74894
head 10.2386 -1.62968 -3.32864
rclavicle 1.13804e-014 3.33958e-014
rhumerus -23.638 1.93667 -56.9215
rradius 60.7382
rwrist -0.370249
rhand -6.50393 1.60162
rfingers 7.12502
rthumb 19.3479 -27.4559
lclavicle 1.13804e-014 3.33958e-014
lhumerus -53.3136 33.7941 9.94874
lradius 46.7955
lwrist 9.37464
lhand -25.8863 17.0955
lfingers 7.12502
lthumb 0.655598 47.0743
rfemur -19.777 -9.89946 -0.739923
rtibia 48.7133
rfoot 20.1468 2.53968
rtoes -9.64206
lfemur -6.72442 -4.80337 -23.238
ltibia 32.0439
lfoot -13.7312 27.1234
ltoes -2.28033
593
root 4.1305 17.8488 3.13032 -3.01521 1.14455 -2.82548
lowerback 9.47074 5.10865 -1.2999
upperback 1.04892 6.90409 4.7545
thorax -4.94736 3.5008 4.73314
lowerneck -13.7712 -2.48299 5.08941
upperneck 25.6939 -3.24382 -5.61759
head 10.2691 -1.63833 -3.27091
rclavicle 1.42131e-014 2.78299e-014
rhumerus -23.9102 2.33216 -57.1914
rradius 61.0417
rwrist -0.258694
rhand -5.95683 1.61667
rfingers 7.12502
rthumb 19.8739 -27.3872
lclavicle 1.42131e-014 2.78299e-014
lhumerus -53.4265 33.8599 9.99157
lradius 46.8419
lwrist 10.0958
lhand -26.3622 17.1717
lfingers 7.12502
lthumb 0.195895 47.1513
rfemur -18.5289 -9.1868 -0.425515
rtibia 47.4821
rfoot 17.8241 1.61167
rtoes -12.2685
lfemur -6.99854 -4.79463 -23.2112
ltibia 32.3262
lfoot -13.9423 26.9617
ltoes -2.34415
